<svg xmlns="http://www.w3.org/2000/svg" width="600" height="900" viewBox="0 0 600 900">
  <defs>
    <linearGradient id="g" x1="0" y1="0" x2="1" y2="1">
      <stop offset="0" stop-color="#1b6fff" stop-opacity="0.65"/>
      <stop offset="1" stop-color="#00ffd5" stop-opacity="0.55"/>
    </linearGradient>
    <radialGradient id="r" cx="35%" cy="25%" r="70%">
      <stop offset="0" stop-color="#ffffff" stop-opacity="0.18"/>
      <stop offset="1" stop-color="#000000" stop-opacity="0"/>
    </radialGradient>
  </defs>
  <rect width="600" height="900" fill="#0b0c0f"/>
  <rect width="600" height="900" fill="url(#g)"/>
  <rect width="600" height="900" fill="url(#r)"/>

  <!-- Subtle grid -->
  <g opacity="0.18">
    <path d="M0 150H600M0 300H600M0 450H600M0 600H600M0 750H600" stroke="#fff" stroke-opacity="0.22" stroke-width="1"/>
    <path d="M150 0V900M300 0V900M450 0V900" stroke="#fff" stroke-opacity="0.16" stroke-width="1"/>
  </g>

  <!-- Mark -->
  <g transform="translate(300 420)">
    <circle r="96" fill="rgba(255,255,255,0.08)" stroke="rgba(255,255,255,0.22)" stroke-width="2"/>
    <path d="M-62 10c20-34 47-52 62-52s42 18 62 52c-20 34-47 52-62 52s-42-18-62-52Z" fill="rgba(0,0,0,0.25)" stroke="rgba(255,255,255,0.25)" stroke-width="2"/>
    <circle r="18" fill="rgba(255,255,255,0.55)"/>
  </g>

  <text x="300" y="560" text-anchor="middle" font-family="ui-sans-serif, system-ui" font-size="38" fill="rgba(255,255,255,0.86)" font-weight="800">WatchNexus</text>
  <text x="300" y="610" text-anchor="middle" font-family="ui-monospace, SFMono-Regular, Menlo" font-size="18" fill="rgba(255,255,255,0.68)">poster unavailable</text>
</svg>
